<svg xmlns="http://www.w3.org/2000/svg" xmlns:xlink="http://www.w3.org/1999/xlink" width="1500" zoomAndPan="magnify"
	viewBox="0 0 1125 1124.99995" height="1500" preserveAspectRatio="xMidYMid meet" version="1.0">
	<defs>
		<clipPath id="7be4b69155">
			<path
				d="M 303.496094 267 L 622.996094 267 L 622.996094 1012.621094 L 303.496094 1012.621094 Z M 303.496094 267 "
				clip-rule="nonzero" />
		</clipPath>
		<clipPath id="70e87f57fa">
			<path
				d="M 501.980469 112.371094 L 821.480469 112.371094 L 821.480469 858 L 501.980469 858 Z M 501.980469 112.371094 "
				clip-rule="nonzero" />
		</clipPath>
		<clipPath id="d1271a4eff">
			<path
				d="M 303.496094 267 L 569.746094 267 L 569.746094 541.621094 L 303.496094 541.621094 Z M 303.496094 267 "
				clip-rule="nonzero" />
		</clipPath>
		<clipPath id="f3e5496fda">
			<path
				d="M 555.234375 583.375 L 821.484375 583.375 L 821.484375 858 L 555.234375 858 Z M 555.234375 583.375 "
				clip-rule="nonzero" />
		</clipPath>
	</defs>
	<path fill="#ffffff"
		d="M 562.648438 0 C 251.914062 0 0 251.914062 0 562.648438 C 0 873.386719 251.914062 1125.289062 562.648438 1125.289062 C 873.386719 1125.289062 1125.289062 873.386719 1125.289062 562.648438 C 1125.289062 251.914062 873.386719 0 562.648438 0 Z M 562.648438 1008.078125 C 316.636719 1008.078125 117.214844 808.652344 117.214844 562.652344 C 117.214844 316.644531 316.636719 117.222656 562.648438 117.222656 C 808.652344 117.222656 1008.074219 316.648438 1008.074219 562.652344 C 1008.074219 808.652344 808.652344 1008.078125 562.648438 1008.078125 Z M 562.648438 1008.078125 "
		fill-opacity="1" fill-rule="nonzero" />
	<g clip-path="url(#7be4b69155)">
		<path fill="#ffffff"
			d="M 613.46875 1219.945312 C 575.355469 1239 527.082031 1236.460938 487.0625 1213.59375 C 450.222656 1192.628906 420.371094 1155.152344 405.125 1110.6875 C 394.960938 1081.464844 390.515625 1048.433594 391.785156 1013.496094 L 399.410156 1013.496094 L 423.546875 989.359375 L 423.546875 858.503906 L 457.84375 817.847656 L 457.84375 556.769531 L 433.707031 542.160156 L 419.097656 542.160156 L 419.097656 358.582031 L 408.9375 358.582031 L 408.9375 329.359375 L 418.464844 329.359375 L 418.464844 310.304688 L 395.597656 267.746094 L 365.109375 267.746094 L 342.242188 310.304688 L 342.242188 329.359375 L 351.769531 329.359375 L 351.769531 358.582031 L 341.605469 358.582031 L 341.605469 542.160156 L 326.996094 542.160156 L 303.496094 556.769531 L 303.496094 817.847656 L 337.796875 858.503906 L 337.796875 988.722656 L 361.933594 1012.863281 L 369.554688 1012.863281 C 368.285156 1050.339844 373.367188 1085.910156 384.164062 1117.671875 C 401.3125 1168.492188 434.34375 1209.144531 476.265625 1232.648438 C 501.671875 1247.257812 530.257812 1254.246094 557.570312 1254.246094 C 580.4375 1254.246094 603.304688 1249.164062 622.996094 1239 Z M 613.46875 1219.945312 "
			fill-opacity="1" fill-rule="nonzero" />
	</g>
	<g clip-path="url(#70e87f57fa)">
		<path fill="#ffffff"
			d="M 511.511719 -94.953125 C 549.621094 -114.007812 597.894531 -111.46875 637.914062 -88.601562 C 674.753906 -67.636719 704.609375 -30.160156 719.851562 14.304688 C 730.015625 43.527344 734.460938 76.558594 733.191406 111.496094 L 725.570312 111.496094 L 701.429688 135.632812 L 701.429688 266.488281 L 667.132812 307.144531 L 667.132812 568.21875 L 691.269531 582.832031 L 705.878906 582.832031 L 705.878906 766.410156 L 716.039062 766.410156 L 716.039062 795.628906 L 706.511719 795.628906 L 706.511719 814.6875 L 729.378906 857.246094 L 759.867188 857.246094 L 782.734375 814.6875 L 782.734375 795.628906 L 773.207031 795.628906 L 773.207031 766.410156 L 783.371094 766.410156 L 783.371094 582.832031 L 797.980469 582.832031 L 821.480469 568.21875 L 821.480469 307.144531 L 787.183594 266.488281 L 787.183594 136.269531 L 763.042969 112.128906 L 755.421875 112.128906 C 756.691406 74.652344 751.613281 39.078125 740.8125 7.316406 C 723.664062 -43.5 690.632812 -84.152344 648.710938 -107.65625 C 623.304688 -122.269531 594.71875 -129.253906 567.40625 -129.253906 C 544.539062 -129.253906 521.671875 -124.171875 501.980469 -114.007812 Z M 511.511719 -94.953125 "
			fill-opacity="1" fill-rule="nonzero" />
	</g>
	<g clip-path="url(#d1271a4eff)">
		<path fill="#a9a9a9"
			d="M 613.46875 1219.945312 C 575.355469 1239 527.082031 1236.460938 487.0625 1213.59375 C 450.222656 1192.628906 420.371094 1155.152344 405.125 1110.6875 C 394.960938 1081.464844 390.515625 1048.433594 391.785156 1013.496094 L 399.410156 1013.496094 L 423.546875 989.359375 L 423.546875 858.503906 L 457.84375 817.847656 L 457.84375 556.769531 L 433.707031 542.160156 L 419.097656 542.160156 L 419.097656 358.582031 L 408.9375 358.582031 L 408.9375 329.359375 L 418.464844 329.359375 L 418.464844 310.304688 L 395.597656 267.746094 L 365.109375 267.746094 L 342.242188 310.304688 L 342.242188 329.359375 L 351.769531 329.359375 L 351.769531 358.582031 L 341.605469 358.582031 L 341.605469 542.160156 L 326.996094 542.160156 L 303.496094 556.769531 L 303.496094 817.847656 L 337.796875 858.503906 L 337.796875 988.722656 L 361.933594 1012.863281 L 369.554688 1012.863281 C 368.285156 1050.339844 373.367188 1085.910156 384.164062 1117.671875 C 401.3125 1168.492188 434.34375 1209.144531 476.265625 1232.648438 C 501.671875 1247.257812 530.257812 1254.246094 557.570312 1254.246094 C 580.4375 1254.246094 603.304688 1249.164062 622.996094 1239 Z M 613.46875 1219.945312 "
			fill-opacity="1" fill-rule="nonzero" />
	</g>
	<g clip-path="url(#f3e5496fda)">
		<path fill="#a9a9a9"
			d="M 511.511719 -94.949219 C 549.625 -114.003906 597.898438 -111.464844 637.914062 -88.597656 C 674.753906 -67.632812 704.609375 -30.15625 719.855469 14.308594 C 730.015625 43.53125 734.464844 76.5625 733.191406 111.5 L 725.570312 111.5 L 701.433594 135.636719 L 701.433594 266.492188 L 667.132812 307.148438 L 667.132812 568.222656 L 691.269531 582.835938 L 705.878906 582.835938 L 705.878906 766.414062 L 716.042969 766.414062 L 716.042969 795.632812 L 706.515625 795.632812 L 706.515625 814.691406 L 729.382812 857.25 L 759.871094 857.25 L 782.738281 814.691406 L 782.738281 795.632812 L 773.210938 795.632812 L 773.210938 766.414062 L 783.371094 766.414062 L 783.371094 582.835938 L 797.980469 582.835938 L 821.484375 568.222656 L 821.484375 307.148438 L 787.183594 266.492188 L 787.183594 136.273438 L 763.046875 112.132812 L 755.425781 112.132812 C 756.695312 74.65625 751.613281 39.082031 740.816406 7.320312 C 723.664062 -43.496094 690.636719 -84.148438 648.710938 -107.652344 C 623.304688 -122.261719 594.722656 -129.25 567.410156 -129.25 C 544.542969 -129.25 521.675781 -124.167969 501.984375 -114.003906 Z M 511.511719 -94.949219 "
			fill-opacity="1" fill-rule="nonzero" />
	</g>
</svg>